<?xml version="1.0" encoding="utf-8"?>
<!-- Generator: Adobe Illustrator 18.0.0, SVG Export Plug-In . SVG Version: 6.00 Build 0)  -->
<!DOCTYPE svg PUBLIC "-//W3C//DTD SVG 1.1//EN" "http://www.w3.org/Graphics/SVG/1.1/DTD/svg11.dtd">
<svg version="1.1" id="Layer_1" xmlns="http://www.w3.org/2000/svg" xmlns:xlink="http://www.w3.org/1999/xlink" x="0px" y="0px"
	 width="540px" height="540px" viewBox="0 0 540 540" enable-background="new 0 0 540 540" xml:space="preserve">
<path fill="#444244" d="M270,4.4C123.3,4.4,4.4,123.3,4.4,270c0,146.7,118.9,265.6,265.6,265.6S535.6,416.7,535.6,270
	C535.6,123.3,416.7,4.4,270,4.4z M270,82.3c103.5,0,187.7,84.2,187.7,187.7c0,103.5-84.2,187.7-187.7,187.7
	c-103.5,0-187.7-84.2-187.7-187.7C82.3,166.5,166.5,82.3,270,82.3z"/>
<g>
	<path fill="#424242" d="M132.7,384.5c5.8-12.9,11.6-25.7,17.4-38.6c15.1-33.5,30.2-67,45.3-100.5c10.1-22.4,20.2-44.9,30.4-67.3
		c6.9-15.3,13.8-30.6,20.7-45.9c0.4-0.8,0.3-1.4,0-2.2c-5.3-14.9,4.2-31.1,19.8-33.9c0.8-0.1,1.6-0.3,2.5-0.4c1.4,0,2.9,0,4.3,0
		c1.3,0.2,2.5,0.4,3.8,0.7c10.2,2.4,17.8,10.6,19.5,20.9c2.4,14.2-7.2,27.6-21.4,29.8c-6.5,1-12.6-0.3-18.2-3.9
		c-0.2-0.2-0.5-0.3-0.8-0.5c-0.7,1.5-1.4,3-2.1,4.5c-0.1,0.1,0,0.3,0,0.5c-0.2,0.3-0.5,0.5-0.7,0.9c-6.1,13-12.3,26.1-18.4,39.1
		c-12.7,27.1-25.5,54.2-38.2,81.3c-1.8,3.7-3.5,7.5-5.3,11.3c0.6,0.4,1.2,0.7,1.8,1.1c0.6-0.9,1.1-1.7,1.6-2.6
		c4.8-7.8,9.6-15.6,14.5-23.4c1.8-2.8,3.8-5.5,5.9-7.9c3.1-3.5,6.8-6.2,11.3-7.4c1.1-0.3,2.3-0.5,3.6-0.7c0.3-28,9.6-52.4,29.4-72.7
		c0.1,0.2,0.3,0.4,0.4,0.6c1.6,2.6,3.1,5.3,4.7,7.9c0.4,0.7,0.4,1.2,0.1,1.9c-7.3,15.8-14.7,31.7-22,47.5
		c-2.7,5.9-5.5,11.9-8.2,17.8c-0.3,0.5-0.5,0.7-1.1,0.7c-1.1,0-2.2,0-3.3,0.2c-3.1,0.4-6.1,1.3-8.6,3.5c-4,3.6-7.1,8.1-10.1,12.6
		c-0.1,0.2,0,0.7,0.2,0.9c3.7,3.7,7.3,7.3,11,11c7,7,14,13.9,21,20.9c8.8,8.8,17.6,17.6,26.4,26.3c0.2,0.2,0.5,0.4,0.7,0.6
		c19.4-19.4,38.7-38.8,58.1-58.2c-3.1-4.5-6.2-9.1-10-13.2c-3.1-3.3-6.8-5.1-11.3-4.8c-0.5,0-0.7-0.2-0.9-0.6
		c-3.1-5.6-6.3-11.2-9.4-16.9c-13.5-24.2-27-48.4-40.5-72.6c-0.9-1.7-1.9-3.4-2.8-5.1c1.3,0.8,2.5,1.5,3.8,2.3
		c3.3,1.9,7,2.7,10.8,2.6c0.6,0,1.1,0.1,1.6,0.6c16.5,15.4,28.3,33.8,35.3,55.3c2.4,7.2,4,14.6,4.9,22.1c0.3,2.7,0.5,5.3,0.7,8
		c0,0.2,0.1,0.3,0.1,0.6c5.9,0.5,9.8,4,13.1,8.4c2.2,2.9,4.1,6.1,6.1,9.1c5.3,8,10.6,15.9,15.9,23.9c0.2,0.2,0.3,0.5,0.6,0.8
		c0.7-0.6,1.4-1.1,2-1.8c0.1-0.2,0-0.7-0.1-0.9c-2.3-4.9-4.6-9.8-7-14.6c-8.7-18.3-17.4-36.6-26.1-54.9
		c-8.9-18.8-17.9-37.5-26.8-56.3c-0.7-1.6-1.5-3.1-2.3-4.8c4-2.5,7.3-5.8,9.9-9.8c37.4,82.2,74.8,164.3,112.1,246.4
		c-1.3,0-2.5,0-3.8,0c-0.1-0.3-0.2-0.6-0.4-0.9c-16.4-26.7-32.9-53.4-49.3-80.1c-0.4-0.7-0.8-1.4-1.4-2.2
		c-27.7,27.7-55.4,55.4-83,83c-27.9-27.9-55.8-55.8-83.8-83.7c-0.7,1.2-1.4,2.3-2,3.4c-14.6,24.5-29.2,49.1-43.8,73.6
		c-1.3,2.3-2.7,4.6-4,6.8C135.6,384.5,134.2,384.5,132.7,384.5z M270.7,335.8c-22-21.7-43.9-43.4-65.9-65.1
		c-0.1,0.2-0.2,0.3-0.3,0.4c-3.6,6.1-7.3,12.2-11,18.4c-0.3,0.5-0.1,0.7,0.2,1.1c2.5,2.5,4.9,5,7.4,7.5c8.8,8.9,17.6,17.8,26.5,26.7
		c6.3,6.3,12.6,12.6,18.8,19c7.8,7.9,15.6,15.7,23.4,23.6c0.2,0.2,0.5,0.4,0.8,0.7c25.5-25.7,51-51.4,76.4-77.1
		c-3.9-6.4-7.8-12.7-11.7-19C313.8,293.2,292.3,314.4,270.7,335.8z M283.5,121.6c0-7-5.6-12.6-12.6-12.6c-6.9,0-12.6,5.7-12.6,12.6
		c0,6.9,5.7,12.6,12.6,12.6C277.8,134.2,283.5,128.5,283.5,121.6z"/>
	<path fill="#424242" d="M122.6,236.2c0.4-0.3,0.7-0.5,1.1-0.8c1.9-1.8,4-2.2,6.6-1.7c5.2,1,10.5,1,15.8,0.4
		c3.8-0.4,7.5-1.1,11.3-1.6c1.2-0.1,2.5,0.1,3.7,0.4c2.8,0.7,5.6,1.7,8.4,2.5c2.1,0.5,4.2,0.6,6.3,0.1c1.7-0.4,3.2-1.1,4.4-2.3
		c0.4-0.4,0.8-0.7,1.2-1c0.7-0.5,1.4-0.4,2.1,0.2c2.7,2.6,5.4,5.2,8.1,7.9c-1.9,4-3.8,8-5.7,12.1c-1.7-1.8-3.3-3.6-4.9-5.4
		c-0.6-0.7-1-0.9-2-0.5c-2.8,1.1-5.6,0.5-8.2-0.5c-3.2-1.3-5.9-3.2-8.6-5.2c-0.8-0.6-1.6-1.2-2.4-1.8c-0.8-0.6-1.7-0.6-2.6-0.2
		c-1.4,0.6-2.8,1.4-4.3,1.8c-1.8,0.4-3.7,0.5-5.5,0.7c-0.4,0-0.9,0.2-1,0.5c-0.1,0.3,0.1,0.8,0.2,1.2c0.1,0.2,0.3,0.4,0.5,0.6
		c5.9,5.9,11.8,11.9,17.7,17.8c3.9,3.9,7.7,7.8,11.6,11.7c0.3,0.3,0.6,0.5,0.4,1.1c-1.7,3.6-3.4,7.3-5.1,10.9c0,0-0.1,0.1-0.2,0.2
		c-0.2-0.2-0.5-0.5-0.8-0.7c-15.7-15.7-31.5-31.5-47.2-47.2c-0.3-0.3-0.5-0.5-0.8-0.7C122.6,236.3,122.6,236.3,122.6,236.2z"/>
	<path fill="#424242" d="M368.7,285c-1.6-3.5-3.4-7.2-5.1-10.9c-0.1-0.2,0.1-0.8,0.4-1c5.8-5.9,11.7-11.7,17.5-17.6
		c3.9-4,7.9-8,11.8-11.9c0.1-0.1,0.4-0.3,0.4-0.5c0.1-0.4,0.3-0.9,0.2-1.2c-0.1-0.3-0.7-0.5-1-0.5c-2.6,0-5.2-0.4-7.6-1.4
		c-0.8-0.4-1.6-0.7-2.4-1.1c-0.9-0.5-1.7-0.3-2.4,0.2c-1.6,1.2-3.2,2.4-4.8,3.5c-2.6,1.9-5.4,3.5-8.6,4.3c-2.2,0.5-4.4,0.5-6.4-0.4
		c-0.5-0.2-0.7,0-1,0.3c-1.6,1.7-3.2,3.5-4.7,5.2c-0.2,0.2-0.3,0.4-0.5,0.7c-0.9-1.8-1.6-3.4-2.4-5c-1-2.1-2-4.3-3-6.4
		c-0.2-0.5-0.2-0.8,0.2-1.2c2.5-2.4,5-4.8,7.4-7.2c0.8-0.8,1.5-0.8,2.4-0.2c0.1,0.1,0.3,0.2,0.4,0.3c3.3,3.5,7.5,3.7,11.8,2.7
		c2.7-0.6,5.2-1.5,7.8-2.4c1.9-0.7,3.8-0.4,5.7-0.1c5.8,1,11.6,1.9,17.6,1.7c3.1-0.1,6.3-0.5,9.4-0.9c1.1-0.1,2.1-0.1,3,0.6
		c1,0.7,2,1.4,2.9,2.1C401.2,252.6,385,268.8,368.7,285z"/>
</g>
</svg>
